<svg width="367" height="549" viewBox="0 0 367 549" fill="none" xmlns="http://www.w3.org/2000/svg">
<path d="M420.559 467.724C401.944 696.846 132.105 555.532 124.134 548.346C-87.158 357.858 30.0181 106.818 53.9552 83.2212C84.4222 27.916 138.863 -8.14826e-06 172.827 0C219.521 0 263.504 102.183 189.085 176.827C173.602 195.789 135.234 215.427 124.134 296.541C106.398 426.148 201.093 432.995 223.048 426.148C241.372 420.433 266.322 397.84 266.535 359.902C266.495 352.704 265.556 344.939 263.504 336.606L229.52 256.018C200.052 183.331 256.013 190.522 263.504 190.522C276.823 191.751 307.249 204.698 335.926 232.659C370.113 265.992 426.552 393.95 420.559 467.724Z" fill="#3EE1A1" fill-opacity="0.33"/>
</svg>
