<svg width="375" height="442" viewBox="0 0 375 442" fill="none" xmlns="http://www.w3.org/2000/svg">
<path d="M-727 195.022L-697.178 179.027C-667.356 163.033 -607.886 131.044 -547.894 131.044C-488.511 131.044 -428.781 163.033 -369.658 141.74C-309.667 120.048 -249.675 46.0729 -190.553 40.3749C-130.822 35.0767 -71.4389 99.0548 -11.4472 141.74C48.0228 184.026 107.667 206.018 167.658 168.331C226.867 131.044 286.772 35.0767 345.894 8.38582C405.799 -17.9052 465.008 24.0804 495.439 45.773L525 67.0657V259H495.178C465.356 259 500.492 442 440.5 442C381.117 442 296.622 442 237.5 442C177.508 442 163.122 442 104 442C44.2692 442 -187.008 442 -247 442C-306.47 442 -334.508 442 -394.5 442C-453.709 442 -561.878 442 -621 442C-680.905 442 -667.008 259 -697.439 259H-727V195.022Z" fill="url(#paint0_radial)"/>
<defs>
<radialGradient id="paint0_radial" cx="0" cy="0" r="1" gradientUnits="userSpaceOnUse" gradientTransform="translate(157.5 -112.18) rotate(54.0886) scale(472.266 1337.73)">
<stop stop-color="#5AD391"/>
<stop offset="1" stop-color="#AFDDFC" stop-opacity="0"/>
</radialGradient>
</defs>
</svg>
